<mxfile host="app.diagrams.net" modified="2022-09-17T09:29:40.889Z" agent="5.0 (Windows NT 10.0; Win64; x64) AppleWebKit/537.36 (KHTML, like Gecko) Chrome/105.0.0.0 Safari/537.36" etag="Sdf96_m0yHrOsgUWx53R" version="20.3.2" type="github">
  <diagram id="fa3uKgDcAQ5vD3YcXZxg" name="페이지-1">
    <mxGraphModel dx="2713" dy="935" grid="1" gridSize="10" guides="1" tooltips="1" connect="1" arrows="1" fold="1" page="1" pageScale="1" pageWidth="827" pageHeight="1169" math="0" shadow="0">
      <root>
        <mxCell id="0" />
        <mxCell id="1" parent="0" />
        <mxCell id="uAIWlrGeU-sTlZR1kj93-1" value="" style="edgeStyle=orthogonalEdgeStyle;endArrow=ERzeroToMany;startArrow=ERone;endFill=1;startFill=0;strokeColor=#000000;fontColor=#46495D;rounded=1;" edge="1" parent="1" source="uAIWlrGeU-sTlZR1kj93-45" target="uAIWlrGeU-sTlZR1kj93-7">
          <mxGeometry width="100" height="100" relative="1" as="geometry">
            <mxPoint x="340" y="720" as="sourcePoint" />
            <mxPoint x="440" y="620" as="targetPoint" />
          </mxGeometry>
        </mxCell>
        <mxCell id="uAIWlrGeU-sTlZR1kj93-2" value="" style="edgeStyle=entityRelationEdgeStyle;endArrow=ERone;startArrow=ERone;endFill=0;startFill=0;strokeColor=none;fontColor=#46495D;rounded=1;entryX=0;entryY=0.5;entryDx=0;entryDy=0;exitX=0;exitY=0.5;exitDx=0;exitDy=0;" edge="1" parent="1" source="uAIWlrGeU-sTlZR1kj93-45" target="uAIWlrGeU-sTlZR1kj93-26">
          <mxGeometry width="100" height="100" relative="1" as="geometry">
            <mxPoint x="400" y="180" as="sourcePoint" />
            <mxPoint x="460" y="205" as="targetPoint" />
          </mxGeometry>
        </mxCell>
        <mxCell id="uAIWlrGeU-sTlZR1kj93-3" value="계좌" style="shape=table;startSize=30;container=1;collapsible=1;childLayout=tableLayout;fixedRows=1;rowLines=0;fontStyle=1;align=center;resizeLast=1;fillColor=#B2C9AB;strokeColor=#788AA3;fontColor=#46495D;rounded=1;" vertex="1" parent="1">
          <mxGeometry x="-170" y="330" width="290" height="240" as="geometry" />
        </mxCell>
        <mxCell id="uAIWlrGeU-sTlZR1kj93-4" value="" style="shape=partialRectangle;collapsible=0;dropTarget=0;pointerEvents=0;fillColor=none;points=[[0,0.5],[1,0.5]];portConstraint=eastwest;top=0;left=0;right=0;bottom=1;strokeColor=#788AA3;fontColor=#46495D;rounded=1;" vertex="1" parent="uAIWlrGeU-sTlZR1kj93-3">
          <mxGeometry y="30" width="290" height="30" as="geometry" />
        </mxCell>
        <mxCell id="uAIWlrGeU-sTlZR1kj93-5" value="PK" style="shape=partialRectangle;overflow=hidden;connectable=0;fillColor=none;top=0;left=0;bottom=0;right=0;fontStyle=1;strokeColor=#788AA3;fontColor=#46495D;rounded=1;" vertex="1" parent="uAIWlrGeU-sTlZR1kj93-4">
          <mxGeometry width="30" height="30" as="geometry">
            <mxRectangle width="30" height="30" as="alternateBounds" />
          </mxGeometry>
        </mxCell>
        <mxCell id="uAIWlrGeU-sTlZR1kj93-6" value="계좌ID NUMBER(19) NOT NULL " style="shape=partialRectangle;overflow=hidden;connectable=0;fillColor=none;top=0;left=0;bottom=0;right=0;align=left;spacingLeft=6;fontStyle=5;strokeColor=#788AA3;fontColor=#46495D;rounded=1;" vertex="1" parent="uAIWlrGeU-sTlZR1kj93-4">
          <mxGeometry x="30" width="260" height="30" as="geometry">
            <mxRectangle width="260" height="30" as="alternateBounds" />
          </mxGeometry>
        </mxCell>
        <mxCell id="uAIWlrGeU-sTlZR1kj93-7" value="" style="shape=partialRectangle;collapsible=0;dropTarget=0;pointerEvents=0;fillColor=none;points=[[0,0.5],[1,0.5]];portConstraint=eastwest;top=0;left=0;right=0;bottom=0;strokeColor=#788AA3;fontColor=#46495D;rounded=1;" vertex="1" parent="uAIWlrGeU-sTlZR1kj93-3">
          <mxGeometry y="60" width="290" height="30" as="geometry" />
        </mxCell>
        <mxCell id="uAIWlrGeU-sTlZR1kj93-8" value="FK1" style="shape=partialRectangle;overflow=hidden;connectable=0;fillColor=none;top=0;left=0;bottom=0;right=0;strokeColor=#788AA3;fontColor=#46495D;rounded=1;" vertex="1" parent="uAIWlrGeU-sTlZR1kj93-7">
          <mxGeometry width="30" height="30" as="geometry">
            <mxRectangle width="30" height="30" as="alternateBounds" />
          </mxGeometry>
        </mxCell>
        <mxCell id="uAIWlrGeU-sTlZR1kj93-9" value="유저ID NUMBER(19) NOT NULL" style="shape=partialRectangle;overflow=hidden;connectable=0;fillColor=none;top=0;left=0;bottom=0;right=0;align=left;spacingLeft=6;strokeColor=#788AA3;fontColor=#46495D;rounded=1;" vertex="1" parent="uAIWlrGeU-sTlZR1kj93-7">
          <mxGeometry x="30" width="260" height="30" as="geometry">
            <mxRectangle width="260" height="30" as="alternateBounds" />
          </mxGeometry>
        </mxCell>
        <mxCell id="uAIWlrGeU-sTlZR1kj93-10" value="" style="shape=partialRectangle;collapsible=0;dropTarget=0;pointerEvents=0;fillColor=none;points=[[0,0.5],[1,0.5]];portConstraint=eastwest;top=0;left=0;right=0;bottom=0;strokeColor=#788AA3;fontColor=#46495D;rounded=1;" vertex="1" parent="uAIWlrGeU-sTlZR1kj93-3">
          <mxGeometry y="90" width="290" height="30" as="geometry" />
        </mxCell>
        <mxCell id="uAIWlrGeU-sTlZR1kj93-11" value="" style="shape=partialRectangle;overflow=hidden;connectable=0;fillColor=none;top=0;left=0;bottom=0;right=0;strokeColor=#788AA3;fontColor=#46495D;rounded=1;" vertex="1" parent="uAIWlrGeU-sTlZR1kj93-10">
          <mxGeometry width="30" height="30" as="geometry">
            <mxRectangle width="30" height="30" as="alternateBounds" />
          </mxGeometry>
        </mxCell>
        <mxCell id="uAIWlrGeU-sTlZR1kj93-12" value="계좌번호 VARCHAR2(15) NOT NULL" style="shape=partialRectangle;overflow=hidden;connectable=0;fillColor=none;top=0;left=0;bottom=0;right=0;align=left;spacingLeft=6;strokeColor=#788AA3;fontColor=#46495D;rounded=1;" vertex="1" parent="uAIWlrGeU-sTlZR1kj93-10">
          <mxGeometry x="30" width="260" height="30" as="geometry">
            <mxRectangle width="260" height="30" as="alternateBounds" />
          </mxGeometry>
        </mxCell>
        <mxCell id="uAIWlrGeU-sTlZR1kj93-13" value="" style="shape=partialRectangle;collapsible=0;dropTarget=0;pointerEvents=0;fillColor=none;points=[[0,0.5],[1,0.5]];portConstraint=eastwest;top=0;left=0;right=0;bottom=0;strokeColor=#788AA3;fontColor=#46495D;rounded=1;" vertex="1" parent="uAIWlrGeU-sTlZR1kj93-3">
          <mxGeometry y="120" width="290" height="30" as="geometry" />
        </mxCell>
        <mxCell id="uAIWlrGeU-sTlZR1kj93-14" value="" style="shape=partialRectangle;overflow=hidden;connectable=0;fillColor=none;top=0;left=0;bottom=0;right=0;strokeColor=#788AA3;fontColor=#46495D;rounded=1;" vertex="1" parent="uAIWlrGeU-sTlZR1kj93-13">
          <mxGeometry width="30" height="30" as="geometry">
            <mxRectangle width="30" height="30" as="alternateBounds" />
          </mxGeometry>
        </mxCell>
        <mxCell id="uAIWlrGeU-sTlZR1kj93-15" value="잔액 NUMBER(19) NOT NULL DEFAULT 0" style="shape=partialRectangle;overflow=hidden;connectable=0;fillColor=none;top=0;left=0;bottom=0;right=0;align=left;spacingLeft=6;strokeColor=#788AA3;fontColor=#46495D;rounded=1;" vertex="1" parent="uAIWlrGeU-sTlZR1kj93-13">
          <mxGeometry x="30" width="260" height="30" as="geometry">
            <mxRectangle width="260" height="30" as="alternateBounds" />
          </mxGeometry>
        </mxCell>
        <mxCell id="uAIWlrGeU-sTlZR1kj93-16" value="" style="shape=partialRectangle;collapsible=0;dropTarget=0;pointerEvents=0;fillColor=none;points=[[0,0.5],[1,0.5]];portConstraint=eastwest;top=0;left=0;right=0;bottom=0;strokeColor=#788AA3;fontColor=#46495D;rounded=1;" vertex="1" parent="uAIWlrGeU-sTlZR1kj93-3">
          <mxGeometry y="150" width="290" height="30" as="geometry" />
        </mxCell>
        <mxCell id="uAIWlrGeU-sTlZR1kj93-17" value="" style="shape=partialRectangle;overflow=hidden;connectable=0;fillColor=none;top=0;left=0;bottom=0;right=0;strokeColor=#788AA3;fontColor=#46495D;rounded=1;" vertex="1" parent="uAIWlrGeU-sTlZR1kj93-16">
          <mxGeometry width="30" height="30" as="geometry">
            <mxRectangle width="30" height="30" as="alternateBounds" />
          </mxGeometry>
        </mxCell>
        <mxCell id="uAIWlrGeU-sTlZR1kj93-18" value="개설일자 VARCHAR2(8) NOT NULL" style="shape=partialRectangle;overflow=hidden;connectable=0;fillColor=none;top=0;left=0;bottom=0;right=0;align=left;spacingLeft=6;strokeColor=#788AA3;fontColor=#46495D;rounded=1;" vertex="1" parent="uAIWlrGeU-sTlZR1kj93-16">
          <mxGeometry x="30" width="260" height="30" as="geometry">
            <mxRectangle width="260" height="30" as="alternateBounds" />
          </mxGeometry>
        </mxCell>
        <mxCell id="uAIWlrGeU-sTlZR1kj93-19" value="" style="shape=partialRectangle;collapsible=0;dropTarget=0;pointerEvents=0;fillColor=none;points=[[0,0.5],[1,0.5]];portConstraint=eastwest;top=0;left=0;right=0;bottom=0;strokeColor=#788AA3;fontColor=#46495D;rounded=1;" vertex="1" parent="uAIWlrGeU-sTlZR1kj93-3">
          <mxGeometry y="180" width="290" height="30" as="geometry" />
        </mxCell>
        <mxCell id="uAIWlrGeU-sTlZR1kj93-20" value="" style="shape=partialRectangle;overflow=hidden;connectable=0;fillColor=none;top=0;left=0;bottom=0;right=0;strokeColor=#788AA3;fontColor=#46495D;rounded=1;" vertex="1" parent="uAIWlrGeU-sTlZR1kj93-19">
          <mxGeometry width="30" height="30" as="geometry">
            <mxRectangle width="30" height="30" as="alternateBounds" />
          </mxGeometry>
        </mxCell>
        <mxCell id="uAIWlrGeU-sTlZR1kj93-21" value="해지일자 VARCHAR2(8)" style="shape=partialRectangle;overflow=hidden;connectable=0;fillColor=none;top=0;left=0;bottom=0;right=0;align=left;spacingLeft=6;strokeColor=#788AA3;fontColor=#46495D;rounded=1;" vertex="1" parent="uAIWlrGeU-sTlZR1kj93-19">
          <mxGeometry x="30" width="260" height="30" as="geometry">
            <mxRectangle width="260" height="30" as="alternateBounds" />
          </mxGeometry>
        </mxCell>
        <mxCell id="uAIWlrGeU-sTlZR1kj93-22" value="" style="shape=partialRectangle;collapsible=0;dropTarget=0;pointerEvents=0;fillColor=none;points=[[0,0.5],[1,0.5]];portConstraint=eastwest;top=0;left=0;right=0;bottom=0;strokeColor=#788AA3;fontColor=#46495D;rounded=1;" vertex="1" parent="uAIWlrGeU-sTlZR1kj93-3">
          <mxGeometry y="210" width="290" height="30" as="geometry" />
        </mxCell>
        <mxCell id="uAIWlrGeU-sTlZR1kj93-23" value="" style="shape=partialRectangle;overflow=hidden;connectable=0;fillColor=none;top=0;left=0;bottom=0;right=0;strokeColor=#788AA3;fontColor=#46495D;rounded=1;" vertex="1" parent="uAIWlrGeU-sTlZR1kj93-22">
          <mxGeometry width="30" height="30" as="geometry">
            <mxRectangle width="30" height="30" as="alternateBounds" />
          </mxGeometry>
        </mxCell>
        <mxCell id="uAIWlrGeU-sTlZR1kj93-24" value="계좌명 VARCHAR2(50)" style="shape=partialRectangle;overflow=hidden;connectable=0;fillColor=none;top=0;left=0;bottom=0;right=0;align=left;spacingLeft=6;strokeColor=#788AA3;fontColor=#46495D;rounded=1;" vertex="1" parent="uAIWlrGeU-sTlZR1kj93-22">
          <mxGeometry x="30" width="260" height="30" as="geometry">
            <mxRectangle width="260" height="30" as="alternateBounds" />
          </mxGeometry>
        </mxCell>
        <mxCell id="uAIWlrGeU-sTlZR1kj93-44" value="유저" style="shape=table;startSize=30;container=1;collapsible=1;childLayout=tableLayout;fixedRows=1;rowLines=0;fontStyle=1;align=center;resizeLast=1;fillColor=#B2C9AB;strokeColor=#788AA3;fontColor=#46495D;rounded=1;" vertex="1" parent="1">
          <mxGeometry x="-740" y="460" width="250" height="90" as="geometry" />
        </mxCell>
        <mxCell id="uAIWlrGeU-sTlZR1kj93-45" value="" style="shape=partialRectangle;collapsible=0;dropTarget=0;pointerEvents=0;fillColor=none;points=[[0,0.5],[1,0.5]];portConstraint=eastwest;top=0;left=0;right=0;bottom=1;strokeColor=#788AA3;fontColor=#46495D;rounded=1;" vertex="1" parent="uAIWlrGeU-sTlZR1kj93-44">
          <mxGeometry y="30" width="250" height="30" as="geometry" />
        </mxCell>
        <mxCell id="uAIWlrGeU-sTlZR1kj93-46" value="PK" style="shape=partialRectangle;overflow=hidden;connectable=0;fillColor=none;top=0;left=0;bottom=0;right=0;fontStyle=1;strokeColor=#788AA3;fontColor=#46495D;rounded=1;" vertex="1" parent="uAIWlrGeU-sTlZR1kj93-45">
          <mxGeometry width="30" height="30" as="geometry">
            <mxRectangle width="30" height="30" as="alternateBounds" />
          </mxGeometry>
        </mxCell>
        <mxCell id="uAIWlrGeU-sTlZR1kj93-47" value="유저ID NUMBER(19) NOT NULL " style="shape=partialRectangle;overflow=hidden;connectable=0;fillColor=none;top=0;left=0;bottom=0;right=0;align=left;spacingLeft=6;fontStyle=5;strokeColor=#788AA3;fontColor=#46495D;rounded=1;" vertex="1" parent="uAIWlrGeU-sTlZR1kj93-45">
          <mxGeometry x="30" width="220" height="30" as="geometry">
            <mxRectangle width="220" height="30" as="alternateBounds" />
          </mxGeometry>
        </mxCell>
        <mxCell id="uAIWlrGeU-sTlZR1kj93-48" value="" style="shape=partialRectangle;collapsible=0;dropTarget=0;pointerEvents=0;fillColor=none;points=[[0,0.5],[1,0.5]];portConstraint=eastwest;top=0;left=0;right=0;bottom=0;strokeColor=#788AA3;fontColor=#46495D;rounded=1;" vertex="1" parent="uAIWlrGeU-sTlZR1kj93-44">
          <mxGeometry y="60" width="250" height="30" as="geometry" />
        </mxCell>
        <mxCell id="uAIWlrGeU-sTlZR1kj93-49" value="" style="shape=partialRectangle;overflow=hidden;connectable=0;fillColor=none;top=0;left=0;bottom=0;right=0;strokeColor=#788AA3;fontColor=#46495D;rounded=1;" vertex="1" parent="uAIWlrGeU-sTlZR1kj93-48">
          <mxGeometry width="30" height="30" as="geometry">
            <mxRectangle width="30" height="30" as="alternateBounds" />
          </mxGeometry>
        </mxCell>
        <mxCell id="uAIWlrGeU-sTlZR1kj93-50" value="유저명 VARCHAR2(50) NOT NULL" style="shape=partialRectangle;overflow=hidden;connectable=0;fillColor=none;top=0;left=0;bottom=0;right=0;align=left;spacingLeft=6;strokeColor=#788AA3;fontColor=#46495D;rounded=1;" vertex="1" parent="uAIWlrGeU-sTlZR1kj93-48">
          <mxGeometry x="30" width="220" height="30" as="geometry">
            <mxRectangle width="220" height="30" as="alternateBounds" />
          </mxGeometry>
        </mxCell>
        <mxCell id="uAIWlrGeU-sTlZR1kj93-51" style="edgeStyle=orthogonalEdgeStyle;rounded=1;orthogonalLoop=1;jettySize=auto;html=1;exitX=0;exitY=0.5;exitDx=0;exitDy=0;entryX=0;entryY=0.5;entryDx=0;entryDy=0;fontSize=12;endArrow=ERzeroToMany;endFill=0;startArrow=ERone;startFill=0;strokeColor=#000000;" edge="1" parent="1" source="uAIWlrGeU-sTlZR1kj93-45" target="uAIWlrGeU-sTlZR1kj93-29">
          <mxGeometry relative="1" as="geometry" />
        </mxCell>
        <mxCell id="uAIWlrGeU-sTlZR1kj93-25" value="이체내역" style="shape=table;startSize=30;container=1;collapsible=1;childLayout=tableLayout;fixedRows=1;rowLines=0;fontStyle=1;align=center;resizeLast=1;fillColor=#B2C9AB;strokeColor=#788AA3;fontColor=#46495D;rounded=1;" vertex="1" parent="1">
          <mxGeometry x="-500" y="50" width="340" height="240" as="geometry" />
        </mxCell>
        <mxCell id="uAIWlrGeU-sTlZR1kj93-26" value="" style="shape=partialRectangle;collapsible=0;dropTarget=0;pointerEvents=0;fillColor=none;points=[[0,0.5],[1,0.5]];portConstraint=eastwest;top=0;left=0;right=0;bottom=1;strokeColor=#788AA3;fontColor=#46495D;rounded=1;strokeWidth=0;" vertex="1" parent="uAIWlrGeU-sTlZR1kj93-25">
          <mxGeometry y="30" width="340" height="30" as="geometry" />
        </mxCell>
        <mxCell id="uAIWlrGeU-sTlZR1kj93-27" value="PK, FK1" style="shape=partialRectangle;overflow=hidden;connectable=0;fillColor=none;top=0;left=0;bottom=0;right=0;fontStyle=1;strokeColor=#788AA3;fontColor=#46495D;rounded=1;" vertex="1" parent="uAIWlrGeU-sTlZR1kj93-26">
          <mxGeometry width="60" height="30" as="geometry">
            <mxRectangle width="60" height="30" as="alternateBounds" />
          </mxGeometry>
        </mxCell>
        <mxCell id="uAIWlrGeU-sTlZR1kj93-28" value="계좌ID NUMBER(19) NOT NULL" style="shape=partialRectangle;overflow=hidden;connectable=0;fillColor=none;top=0;left=0;bottom=0;right=0;align=left;spacingLeft=6;fontStyle=5;strokeColor=#788AA3;fontColor=#46495D;rounded=1;flipH=0;flipV=1;" vertex="1" parent="uAIWlrGeU-sTlZR1kj93-26">
          <mxGeometry x="60" width="280" height="30" as="geometry">
            <mxRectangle width="280" height="30" as="alternateBounds" />
          </mxGeometry>
        </mxCell>
        <mxCell id="uAIWlrGeU-sTlZR1kj93-29" value="" style="shape=partialRectangle;collapsible=0;dropTarget=0;pointerEvents=0;fillColor=none;points=[[0,0.5],[1,0.5]];portConstraint=eastwest;top=0;left=0;right=0;bottom=1;strokeColor=#788AA3;fontColor=#46495D;rounded=1;strokeWidth=0;" vertex="1" parent="uAIWlrGeU-sTlZR1kj93-25">
          <mxGeometry y="60" width="340" height="30" as="geometry" />
        </mxCell>
        <mxCell id="uAIWlrGeU-sTlZR1kj93-30" value="PK, FK2" style="shape=partialRectangle;overflow=hidden;connectable=0;fillColor=none;top=0;left=0;bottom=0;right=0;fontStyle=1;strokeColor=#788AA3;fontColor=#46495D;rounded=1;" vertex="1" parent="uAIWlrGeU-sTlZR1kj93-29">
          <mxGeometry width="60" height="30" as="geometry">
            <mxRectangle width="60" height="30" as="alternateBounds" />
          </mxGeometry>
        </mxCell>
        <mxCell id="uAIWlrGeU-sTlZR1kj93-31" value="수금유저ID NUMBER(19) NOT NULL" style="shape=partialRectangle;overflow=hidden;connectable=0;fillColor=none;top=0;left=0;bottom=0;right=0;align=left;spacingLeft=6;fontStyle=5;strokeColor=#788AA3;fontColor=#46495D;rounded=1;flipH=0;flipV=1;" vertex="1" parent="uAIWlrGeU-sTlZR1kj93-29">
          <mxGeometry x="60" width="280" height="30" as="geometry">
            <mxRectangle width="280" height="30" as="alternateBounds" />
          </mxGeometry>
        </mxCell>
        <mxCell id="uAIWlrGeU-sTlZR1kj93-32" value="" style="shape=partialRectangle;collapsible=0;dropTarget=0;pointerEvents=0;fillColor=none;points=[[0,0.5],[1,0.5]];portConstraint=eastwest;top=0;left=0;right=0;bottom=1;strokeColor=#788AA3;fontColor=#46495D;rounded=1;strokeWidth=0;" vertex="1" parent="uAIWlrGeU-sTlZR1kj93-25">
          <mxGeometry y="90" width="340" height="30" as="geometry" />
        </mxCell>
        <mxCell id="uAIWlrGeU-sTlZR1kj93-33" value="PK" style="shape=partialRectangle;overflow=hidden;connectable=0;fillColor=none;top=0;left=0;bottom=0;right=0;fontStyle=1;strokeColor=#788AA3;fontColor=#46495D;rounded=1;" vertex="1" parent="uAIWlrGeU-sTlZR1kj93-32">
          <mxGeometry width="60" height="30" as="geometry">
            <mxRectangle width="60" height="30" as="alternateBounds" />
          </mxGeometry>
        </mxCell>
        <mxCell id="uAIWlrGeU-sTlZR1kj93-34" value="요청일자 CHAR(8) NOT NULL" style="shape=partialRectangle;overflow=hidden;connectable=0;fillColor=none;top=0;left=0;bottom=0;right=0;align=left;spacingLeft=6;fontStyle=5;strokeColor=#788AA3;fontColor=#46495D;rounded=1;" vertex="1" parent="uAIWlrGeU-sTlZR1kj93-32">
          <mxGeometry x="60" width="280" height="30" as="geometry">
            <mxRectangle width="280" height="30" as="alternateBounds" />
          </mxGeometry>
        </mxCell>
        <mxCell id="uAIWlrGeU-sTlZR1kj93-35" value="" style="shape=partialRectangle;collapsible=0;dropTarget=0;pointerEvents=0;fillColor=none;points=[[0,0.5],[1,0.5]];portConstraint=eastwest;top=0;left=0;right=0;bottom=1;strokeColor=#788AA3;fontColor=#46495D;rounded=1;" vertex="1" parent="uAIWlrGeU-sTlZR1kj93-25">
          <mxGeometry y="120" width="340" height="30" as="geometry" />
        </mxCell>
        <mxCell id="uAIWlrGeU-sTlZR1kj93-36" value="PK" style="shape=partialRectangle;overflow=hidden;connectable=0;fillColor=none;top=0;left=0;bottom=0;right=0;fontStyle=1;strokeColor=#788AA3;fontColor=#46495D;rounded=1;" vertex="1" parent="uAIWlrGeU-sTlZR1kj93-35">
          <mxGeometry width="60" height="30" as="geometry">
            <mxRectangle width="60" height="30" as="alternateBounds" />
          </mxGeometry>
        </mxCell>
        <mxCell id="uAIWlrGeU-sTlZR1kj93-37" value="요청시간 CHAR(8) NOT NULL" style="shape=partialRectangle;overflow=hidden;connectable=0;fillColor=none;top=0;left=0;bottom=0;right=0;align=left;spacingLeft=6;fontStyle=5;strokeColor=#788AA3;fontColor=#46495D;rounded=1;" vertex="1" parent="uAIWlrGeU-sTlZR1kj93-35">
          <mxGeometry x="60" width="280" height="30" as="geometry">
            <mxRectangle width="280" height="30" as="alternateBounds" />
          </mxGeometry>
        </mxCell>
        <mxCell id="uAIWlrGeU-sTlZR1kj93-41" value="" style="shape=partialRectangle;collapsible=0;dropTarget=0;pointerEvents=0;fillColor=none;points=[[0,0.5],[1,0.5]];portConstraint=eastwest;top=0;left=0;right=0;bottom=0;strokeColor=#788AA3;fontColor=#46495D;rounded=1;" vertex="1" parent="uAIWlrGeU-sTlZR1kj93-25">
          <mxGeometry y="150" width="340" height="30" as="geometry" />
        </mxCell>
        <mxCell id="uAIWlrGeU-sTlZR1kj93-42" value="" style="shape=partialRectangle;overflow=hidden;connectable=0;fillColor=none;top=0;left=0;bottom=0;right=0;strokeColor=#788AA3;fontColor=#46495D;rounded=1;" vertex="1" parent="uAIWlrGeU-sTlZR1kj93-41">
          <mxGeometry width="60" height="30" as="geometry">
            <mxRectangle width="60" height="30" as="alternateBounds" />
          </mxGeometry>
        </mxCell>
        <mxCell id="uAIWlrGeU-sTlZR1kj93-43" value="이체금액 NUMBER(19) NOT NULL" style="shape=partialRectangle;overflow=hidden;connectable=0;fillColor=none;top=0;left=0;bottom=0;right=0;align=left;spacingLeft=6;strokeColor=#788AA3;fontColor=#46495D;rounded=1;" vertex="1" parent="uAIWlrGeU-sTlZR1kj93-41">
          <mxGeometry x="60" width="280" height="30" as="geometry">
            <mxRectangle width="280" height="30" as="alternateBounds" />
          </mxGeometry>
        </mxCell>
        <mxCell id="uAIWlrGeU-sTlZR1kj93-121" value="" style="shape=partialRectangle;collapsible=0;dropTarget=0;pointerEvents=0;fillColor=none;points=[[0,0.5],[1,0.5]];portConstraint=eastwest;top=0;left=0;right=0;bottom=0;strokeColor=#788AA3;fontColor=#46495D;rounded=1;" vertex="1" parent="uAIWlrGeU-sTlZR1kj93-25">
          <mxGeometry y="180" width="340" height="30" as="geometry" />
        </mxCell>
        <mxCell id="uAIWlrGeU-sTlZR1kj93-122" value="FK3" style="shape=partialRectangle;overflow=hidden;connectable=0;fillColor=none;top=0;left=0;bottom=0;right=0;strokeColor=#788AA3;fontColor=#46495D;rounded=1;" vertex="1" parent="uAIWlrGeU-sTlZR1kj93-121">
          <mxGeometry width="60" height="30" as="geometry">
            <mxRectangle width="60" height="30" as="alternateBounds" />
          </mxGeometry>
        </mxCell>
        <mxCell id="uAIWlrGeU-sTlZR1kj93-123" value="수신계좌ID NUMBER(19)" style="shape=partialRectangle;overflow=hidden;connectable=0;fillColor=none;top=0;left=0;bottom=0;right=0;align=left;spacingLeft=6;strokeColor=#788AA3;fontColor=#46495D;rounded=1;" vertex="1" parent="uAIWlrGeU-sTlZR1kj93-121">
          <mxGeometry x="60" width="280" height="30" as="geometry">
            <mxRectangle width="280" height="30" as="alternateBounds" />
          </mxGeometry>
        </mxCell>
        <mxCell id="uAIWlrGeU-sTlZR1kj93-38" value="" style="shape=partialRectangle;collapsible=0;dropTarget=0;pointerEvents=0;fillColor=none;points=[[0,0.5],[1,0.5]];portConstraint=eastwest;top=0;left=0;right=0;bottom=0;strokeColor=#788AA3;fontColor=#46495D;rounded=1;" vertex="1" parent="uAIWlrGeU-sTlZR1kj93-25">
          <mxGeometry y="210" width="340" height="30" as="geometry" />
        </mxCell>
        <mxCell id="uAIWlrGeU-sTlZR1kj93-39" value="FK4" style="shape=partialRectangle;overflow=hidden;connectable=0;fillColor=none;top=0;left=0;bottom=0;right=0;strokeColor=#788AA3;fontColor=#46495D;rounded=1;" vertex="1" parent="uAIWlrGeU-sTlZR1kj93-38">
          <mxGeometry width="60" height="30" as="geometry">
            <mxRectangle width="60" height="30" as="alternateBounds" />
          </mxGeometry>
        </mxCell>
        <mxCell id="uAIWlrGeU-sTlZR1kj93-40" value="이체상태코드 CHAR(1) NOT NULL DEFAULT &#39;0&#39;" style="shape=partialRectangle;overflow=hidden;connectable=0;fillColor=none;top=0;left=0;bottom=0;right=0;align=left;spacingLeft=6;strokeColor=#788AA3;fontColor=#46495D;rounded=1;" vertex="1" parent="uAIWlrGeU-sTlZR1kj93-38">
          <mxGeometry x="60" width="280" height="30" as="geometry">
            <mxRectangle width="280" height="30" as="alternateBounds" />
          </mxGeometry>
        </mxCell>
        <mxCell id="uAIWlrGeU-sTlZR1kj93-78" value="계좌변동내역" style="shape=table;startSize=30;container=1;collapsible=1;childLayout=tableLayout;fixedRows=1;rowLines=0;fontStyle=1;align=center;resizeLast=1;fillColor=#B2C9AB;strokeColor=#788AA3;fontColor=#46495D;rounded=1;" vertex="1" parent="1">
          <mxGeometry x="320" y="390" width="330" height="180" as="geometry" />
        </mxCell>
        <mxCell id="uAIWlrGeU-sTlZR1kj93-79" value="" style="shape=partialRectangle;collapsible=0;dropTarget=0;pointerEvents=0;fillColor=none;points=[[0,0.5],[1,0.5]];portConstraint=eastwest;top=0;left=0;right=0;bottom=1;strokeColor=#788AA3;fontColor=#46495D;rounded=1;strokeWidth=0;" vertex="1" parent="uAIWlrGeU-sTlZR1kj93-78">
          <mxGeometry y="30" width="330" height="30" as="geometry" />
        </mxCell>
        <mxCell id="uAIWlrGeU-sTlZR1kj93-80" value="PK, FK1" style="shape=partialRectangle;overflow=hidden;connectable=0;fillColor=none;top=0;left=0;bottom=0;right=0;fontStyle=1;strokeColor=#788AA3;fontColor=#46495D;rounded=1;" vertex="1" parent="uAIWlrGeU-sTlZR1kj93-79">
          <mxGeometry width="60" height="30" as="geometry">
            <mxRectangle width="60" height="30" as="alternateBounds" />
          </mxGeometry>
        </mxCell>
        <mxCell id="uAIWlrGeU-sTlZR1kj93-81" value="계좌ID NUMBER(19) NOT NULL " style="shape=partialRectangle;overflow=hidden;connectable=0;fillColor=none;top=0;left=0;bottom=0;right=0;align=left;spacingLeft=6;fontStyle=5;strokeColor=#788AA3;fontColor=#46495D;rounded=1;" vertex="1" parent="uAIWlrGeU-sTlZR1kj93-79">
          <mxGeometry x="60" width="270" height="30" as="geometry">
            <mxRectangle width="270" height="30" as="alternateBounds" />
          </mxGeometry>
        </mxCell>
        <mxCell id="uAIWlrGeU-sTlZR1kj93-100" value="" style="shape=partialRectangle;collapsible=0;dropTarget=0;pointerEvents=0;fillColor=none;points=[[0,0.5],[1,0.5]];portConstraint=eastwest;top=0;left=0;right=0;bottom=1;strokeColor=#788AA3;fontColor=#46495D;rounded=1;strokeWidth=0;" vertex="1" parent="uAIWlrGeU-sTlZR1kj93-78">
          <mxGeometry y="60" width="330" height="30" as="geometry" />
        </mxCell>
        <mxCell id="uAIWlrGeU-sTlZR1kj93-101" value="PK" style="shape=partialRectangle;overflow=hidden;connectable=0;fillColor=none;top=0;left=0;bottom=0;right=0;fontStyle=1;strokeColor=#788AA3;fontColor=#46495D;rounded=1;" vertex="1" parent="uAIWlrGeU-sTlZR1kj93-100">
          <mxGeometry width="60" height="30" as="geometry">
            <mxRectangle width="60" height="30" as="alternateBounds" />
          </mxGeometry>
        </mxCell>
        <mxCell id="uAIWlrGeU-sTlZR1kj93-102" value="변동일자 CHAR(8) NOT NULL " style="shape=partialRectangle;overflow=hidden;connectable=0;fillColor=none;top=0;left=0;bottom=0;right=0;align=left;spacingLeft=6;fontStyle=5;strokeColor=#788AA3;fontColor=#46495D;rounded=1;" vertex="1" parent="uAIWlrGeU-sTlZR1kj93-100">
          <mxGeometry x="60" width="270" height="30" as="geometry">
            <mxRectangle width="270" height="30" as="alternateBounds" />
          </mxGeometry>
        </mxCell>
        <mxCell id="uAIWlrGeU-sTlZR1kj93-104" value="" style="shape=partialRectangle;collapsible=0;dropTarget=0;pointerEvents=0;fillColor=none;points=[[0,0.5],[1,0.5]];portConstraint=eastwest;top=0;left=0;right=0;bottom=1;strokeColor=#788AA3;fontColor=#46495D;rounded=1;" vertex="1" parent="uAIWlrGeU-sTlZR1kj93-78">
          <mxGeometry y="90" width="330" height="30" as="geometry" />
        </mxCell>
        <mxCell id="uAIWlrGeU-sTlZR1kj93-105" value="PK" style="shape=partialRectangle;overflow=hidden;connectable=0;fillColor=none;top=0;left=0;bottom=0;right=0;fontStyle=1;strokeColor=#788AA3;fontColor=#46495D;rounded=1;" vertex="1" parent="uAIWlrGeU-sTlZR1kj93-104">
          <mxGeometry width="60" height="30" as="geometry">
            <mxRectangle width="60" height="30" as="alternateBounds" />
          </mxGeometry>
        </mxCell>
        <mxCell id="uAIWlrGeU-sTlZR1kj93-106" value="변동시간 CHAR(8) NOT NULL " style="shape=partialRectangle;overflow=hidden;connectable=0;fillColor=none;top=0;left=0;bottom=0;right=0;align=left;spacingLeft=6;fontStyle=5;strokeColor=#788AA3;fontColor=#46495D;rounded=1;" vertex="1" parent="uAIWlrGeU-sTlZR1kj93-104">
          <mxGeometry x="60" width="270" height="30" as="geometry">
            <mxRectangle width="270" height="30" as="alternateBounds" />
          </mxGeometry>
        </mxCell>
        <mxCell id="uAIWlrGeU-sTlZR1kj93-82" value="" style="shape=partialRectangle;collapsible=0;dropTarget=0;pointerEvents=0;fillColor=none;points=[[0,0.5],[1,0.5]];portConstraint=eastwest;top=0;left=0;right=0;bottom=0;strokeColor=#788AA3;fontColor=#46495D;rounded=1;" vertex="1" parent="uAIWlrGeU-sTlZR1kj93-78">
          <mxGeometry y="120" width="330" height="30" as="geometry" />
        </mxCell>
        <mxCell id="uAIWlrGeU-sTlZR1kj93-83" value="FK1" style="shape=partialRectangle;overflow=hidden;connectable=0;fillColor=none;top=0;left=0;bottom=0;right=0;strokeColor=#788AA3;fontColor=#46495D;rounded=1;" vertex="1" parent="uAIWlrGeU-sTlZR1kj93-82">
          <mxGeometry width="60" height="30" as="geometry">
            <mxRectangle width="60" height="30" as="alternateBounds" />
          </mxGeometry>
        </mxCell>
        <mxCell id="uAIWlrGeU-sTlZR1kj93-84" value="변동금액 NUMBER(19) NOT NULL DEFAULT 0" style="shape=partialRectangle;overflow=hidden;connectable=0;fillColor=none;top=0;left=0;bottom=0;right=0;align=left;spacingLeft=6;strokeColor=#788AA3;fontColor=#46495D;rounded=1;" vertex="1" parent="uAIWlrGeU-sTlZR1kj93-82">
          <mxGeometry x="60" width="270" height="30" as="geometry">
            <mxRectangle width="270" height="30" as="alternateBounds" />
          </mxGeometry>
        </mxCell>
        <mxCell id="uAIWlrGeU-sTlZR1kj93-85" value="" style="shape=partialRectangle;collapsible=0;dropTarget=0;pointerEvents=0;fillColor=none;points=[[0,0.5],[1,0.5]];portConstraint=eastwest;top=0;left=0;right=0;bottom=0;strokeColor=#788AA3;fontColor=#46495D;rounded=1;" vertex="1" parent="uAIWlrGeU-sTlZR1kj93-78">
          <mxGeometry y="150" width="330" height="30" as="geometry" />
        </mxCell>
        <mxCell id="uAIWlrGeU-sTlZR1kj93-86" value="" style="shape=partialRectangle;overflow=hidden;connectable=0;fillColor=none;top=0;left=0;bottom=0;right=0;strokeColor=#788AA3;fontColor=#46495D;rounded=1;" vertex="1" parent="uAIWlrGeU-sTlZR1kj93-85">
          <mxGeometry width="60" height="30" as="geometry">
            <mxRectangle width="60" height="30" as="alternateBounds" />
          </mxGeometry>
        </mxCell>
        <mxCell id="uAIWlrGeU-sTlZR1kj93-87" value="입출금구분 CHAR(1) NOT NULL" style="shape=partialRectangle;overflow=hidden;connectable=0;fillColor=none;top=0;left=0;bottom=0;right=0;align=left;spacingLeft=6;strokeColor=#788AA3;fontColor=#46495D;rounded=1;" vertex="1" parent="uAIWlrGeU-sTlZR1kj93-85">
          <mxGeometry x="60" width="270" height="30" as="geometry">
            <mxRectangle width="270" height="30" as="alternateBounds" />
          </mxGeometry>
        </mxCell>
        <mxCell id="uAIWlrGeU-sTlZR1kj93-103" style="edgeStyle=orthogonalEdgeStyle;rounded=1;orthogonalLoop=1;jettySize=auto;html=1;entryX=0;entryY=0.5;entryDx=0;entryDy=0;startArrow=ERone;startFill=0;endArrow=ERzeroToMany;endFill=0;" edge="1" parent="1" source="uAIWlrGeU-sTlZR1kj93-4" target="uAIWlrGeU-sTlZR1kj93-79">
          <mxGeometry relative="1" as="geometry" />
        </mxCell>
        <mxCell id="uAIWlrGeU-sTlZR1kj93-52" style="edgeStyle=orthogonalEdgeStyle;rounded=1;orthogonalLoop=1;jettySize=auto;html=1;exitX=0;exitY=0.5;exitDx=0;exitDy=0;entryX=0;entryY=0.5;entryDx=0;entryDy=0;strokeColor=#000000;fontSize=12;startArrow=ERone;startFill=0;endArrow=ERzeroToMany;endFill=0;" edge="1" parent="1" source="uAIWlrGeU-sTlZR1kj93-4" target="uAIWlrGeU-sTlZR1kj93-26">
          <mxGeometry relative="1" as="geometry" />
        </mxCell>
        <mxCell id="uAIWlrGeU-sTlZR1kj93-114" style="edgeStyle=none;orthogonalLoop=1;jettySize=auto;html=1;exitX=0;exitY=0.5;exitDx=0;exitDy=0;entryX=0;entryY=0.5;entryDx=0;entryDy=0;startArrow=ERone;startFill=0;endArrow=ERzeroToOne;endFill=0;rounded=1;strokeColor=none;" edge="1" parent="1" source="uAIWlrGeU-sTlZR1kj93-107" target="uAIWlrGeU-sTlZR1kj93-41">
          <mxGeometry relative="1" as="geometry" />
        </mxCell>
        <mxCell id="uAIWlrGeU-sTlZR1kj93-107" value="이체상태구분" style="shape=table;startSize=30;container=1;collapsible=1;childLayout=tableLayout;fixedRows=1;rowLines=0;fontStyle=1;align=center;resizeLast=1;fillColor=#B2C9AB;strokeColor=#788AA3;fontColor=#46495D;rounded=1;" vertex="1" parent="1">
          <mxGeometry x="40" y="90" width="250" height="90" as="geometry" />
        </mxCell>
        <mxCell id="uAIWlrGeU-sTlZR1kj93-108" value="" style="shape=partialRectangle;collapsible=0;dropTarget=0;pointerEvents=0;fillColor=none;points=[[0,0.5],[1,0.5]];portConstraint=eastwest;top=0;left=0;right=0;bottom=1;strokeColor=#788AA3;fontColor=#46495D;rounded=1;" vertex="1" parent="uAIWlrGeU-sTlZR1kj93-107">
          <mxGeometry y="30" width="250" height="30" as="geometry" />
        </mxCell>
        <mxCell id="uAIWlrGeU-sTlZR1kj93-109" value="PK" style="shape=partialRectangle;overflow=hidden;connectable=0;fillColor=none;top=0;left=0;bottom=0;right=0;fontStyle=1;strokeColor=#788AA3;fontColor=#46495D;rounded=1;" vertex="1" parent="uAIWlrGeU-sTlZR1kj93-108">
          <mxGeometry width="30" height="30" as="geometry">
            <mxRectangle width="30" height="30" as="alternateBounds" />
          </mxGeometry>
        </mxCell>
        <mxCell id="uAIWlrGeU-sTlZR1kj93-110" value="상태코드 CHAR(1) NOT NULL " style="shape=partialRectangle;overflow=hidden;connectable=0;fillColor=none;top=0;left=0;bottom=0;right=0;align=left;spacingLeft=6;fontStyle=5;strokeColor=#788AA3;fontColor=#46495D;rounded=1;" vertex="1" parent="uAIWlrGeU-sTlZR1kj93-108">
          <mxGeometry x="30" width="220" height="30" as="geometry">
            <mxRectangle width="220" height="30" as="alternateBounds" />
          </mxGeometry>
        </mxCell>
        <mxCell id="uAIWlrGeU-sTlZR1kj93-111" value="" style="shape=partialRectangle;collapsible=0;dropTarget=0;pointerEvents=0;fillColor=none;points=[[0,0.5],[1,0.5]];portConstraint=eastwest;top=0;left=0;right=0;bottom=0;strokeColor=#788AA3;fontColor=#46495D;rounded=1;" vertex="1" parent="uAIWlrGeU-sTlZR1kj93-107">
          <mxGeometry y="60" width="250" height="30" as="geometry" />
        </mxCell>
        <mxCell id="uAIWlrGeU-sTlZR1kj93-112" value="" style="shape=partialRectangle;overflow=hidden;connectable=0;fillColor=none;top=0;left=0;bottom=0;right=0;strokeColor=#788AA3;fontColor=#46495D;rounded=1;" vertex="1" parent="uAIWlrGeU-sTlZR1kj93-111">
          <mxGeometry width="30" height="30" as="geometry">
            <mxRectangle width="30" height="30" as="alternateBounds" />
          </mxGeometry>
        </mxCell>
        <mxCell id="uAIWlrGeU-sTlZR1kj93-113" value="상태명 VARCHAR2(50) NOT NULL" style="shape=partialRectangle;overflow=hidden;connectable=0;fillColor=none;top=0;left=0;bottom=0;right=0;align=left;spacingLeft=6;strokeColor=#788AA3;fontColor=#46495D;rounded=1;" vertex="1" parent="uAIWlrGeU-sTlZR1kj93-111">
          <mxGeometry x="30" width="220" height="30" as="geometry">
            <mxRectangle width="220" height="30" as="alternateBounds" />
          </mxGeometry>
        </mxCell>
        <mxCell id="uAIWlrGeU-sTlZR1kj93-115" style="edgeStyle=none;rounded=1;orthogonalLoop=1;jettySize=auto;html=1;exitX=0;exitY=0.5;exitDx=0;exitDy=0;entryX=0;entryY=0.5;entryDx=0;entryDy=0;startArrow=ERone;startFill=0;endArrow=ERzeroToOne;endFill=0;strokeColor=none;" edge="1" parent="1" source="uAIWlrGeU-sTlZR1kj93-108" target="uAIWlrGeU-sTlZR1kj93-32">
          <mxGeometry relative="1" as="geometry" />
        </mxCell>
        <mxCell id="uAIWlrGeU-sTlZR1kj93-116" style="edgeStyle=orthogonalEdgeStyle;orthogonalLoop=1;jettySize=auto;html=1;exitX=0;exitY=0.5;exitDx=0;exitDy=0;startArrow=ERone;startFill=0;endArrow=ERoneToMany;endFill=0;rounded=1;" edge="1" parent="1" source="uAIWlrGeU-sTlZR1kj93-108" target="uAIWlrGeU-sTlZR1kj93-38">
          <mxGeometry relative="1" as="geometry" />
        </mxCell>
        <mxCell id="uAIWlrGeU-sTlZR1kj93-125" style="edgeStyle=orthogonalEdgeStyle;rounded=1;orthogonalLoop=1;jettySize=auto;html=1;exitX=0;exitY=0.5;exitDx=0;exitDy=0;entryX=0;entryY=0.5;entryDx=0;entryDy=0;strokeColor=#000000;fontSize=12;startArrow=ERone;startFill=0;endArrow=ERzeroToMany;endFill=0;" edge="1" parent="1" source="uAIWlrGeU-sTlZR1kj93-4" target="uAIWlrGeU-sTlZR1kj93-121">
          <mxGeometry relative="1" as="geometry">
            <mxPoint x="-360" y="440" as="sourcePoint" />
            <mxPoint x="-690" y="160" as="targetPoint" />
          </mxGeometry>
        </mxCell>
        <mxCell id="uAIWlrGeU-sTlZR1kj93-126" value="WITH (SELECT SUBSTR(A.요청일자, 1,6) AS REQ_DATE&lt;br&gt;&amp;nbsp; &amp;nbsp; &amp;nbsp; &amp;nbsp; &amp;nbsp; &amp;nbsp; &amp;nbsp;, A.이체상태코드 AS SCD&lt;br&gt;&amp;nbsp; &amp;nbsp; &amp;nbsp; &amp;nbsp; &amp;nbsp; &amp;nbsp; &amp;nbsp;, COUNT(*) AS CNT&lt;br&gt;&lt;div style=&quot;&quot;&gt;&lt;span style=&quot;background-color: initial;&quot;&gt;&amp;nbsp; &amp;nbsp;FROM 이체내역 A&lt;/span&gt;&lt;/div&gt;&lt;div style=&quot;&quot;&gt;&lt;span style=&quot;background-color: initial;&quot;&gt;&amp;nbsp; &amp;nbsp; &amp;nbsp; &amp;nbsp; &amp;nbsp; &amp;nbsp; &amp;nbsp;,&amp;nbsp;&lt;/span&gt;&lt;/div&gt;&lt;div style=&quot;&quot;&gt;&lt;span style=&quot;background-color: initial;&quot;&gt;&amp;nbsp;WHERE SUBSTR(A.요청일자, 1, 6) BETWEEN &#39;202101&#39; AND &#39;202103&#39;&lt;/span&gt;&lt;/div&gt;&lt;div style=&quot;&quot;&gt;&lt;span style=&quot;background-color: initial;&quot;&gt;&amp;nbsp;GROUP BY SUBSTR(A.요청일자,1,6), A.이체상태코드)&lt;/span&gt;&lt;/div&gt;&lt;div style=&quot;&quot;&gt;&lt;span style=&quot;background-color: initial;&quot;&gt;AS TMP_CNT&lt;/span&gt;&lt;/div&gt;&lt;div style=&quot;&quot;&gt;&lt;span style=&quot;background-color: initial;&quot;&gt;SELECT &#39;&#39;&lt;/span&gt;&lt;/div&gt;&lt;div style=&quot;&quot;&gt;&lt;span style=&quot;background-color: initial;&quot;&gt;&amp;nbsp; &amp;nbsp; &amp;nbsp; &amp;nbsp; &amp;nbsp; &amp;nbsp; , &#39;이체완료건수&#39;&lt;/span&gt;&lt;/div&gt;&lt;div style=&quot;&quot;&gt;&lt;span style=&quot;background-color: initial;&quot;&gt;&amp;nbsp; &amp;nbsp; &amp;nbsp; &amp;nbsp; &amp;nbsp; &amp;nbsp; , &#39;이체오류건수&#39;&lt;/span&gt;&lt;/div&gt;&lt;div style=&quot;&quot;&gt;&lt;span style=&quot;background-color: initial;&quot;&gt;&amp;nbsp; &amp;nbsp; &amp;nbsp; &amp;nbsp; &amp;nbsp; &amp;nbsp; , &#39;처리중건수&#39;&lt;/span&gt;&lt;/div&gt;&lt;div style=&quot;&quot;&gt;&amp;nbsp; &amp;nbsp;FROM DUAL&lt;/div&gt;&lt;div style=&quot;&quot;&gt;UNION ALL&lt;/div&gt;&lt;div style=&quot;&quot;&gt;&lt;span style=&quot;background-color: initial;&quot;&gt;SELECT SUBSTR(REQ_DATE, 1,4) || &#39;.&#39; || SUBSTR(REQ_DATE, 5,2)&lt;/span&gt;&lt;/div&gt;&lt;div style=&quot;&quot;&gt;&lt;span style=&quot;background-color: initial;&quot;&gt;&amp;nbsp; &amp;nbsp; &amp;nbsp; &amp;nbsp; &amp;nbsp; &amp;nbsp; , TO_CHAR((SELECT CNT FROM TMP_CNT Z WHERE X.REQ_DATE = Z.REQ_DATE AND Z.SCD = &#39;1&#39;))&lt;/span&gt;&lt;/div&gt;&lt;div style=&quot;&quot;&gt;&amp;nbsp; &amp;nbsp; &amp;nbsp; &amp;nbsp; &amp;nbsp; &amp;nbsp; , TO_CHAR((SELECT CNT FROM TMP_CNT Z WHERE X.REQ_DATE = Z.REQ_DATE AND Z.SCD = &#39;1&#39;))&lt;span style=&quot;background-color: initial;&quot;&gt;&lt;br&gt;&lt;/span&gt;&lt;/div&gt;&lt;div style=&quot;&quot;&gt;&amp;nbsp; &amp;nbsp; &amp;nbsp; &amp;nbsp; &amp;nbsp; &amp;nbsp; , TO_CHAR((SELECT CNT FROM TMP_CNT Z WHERE X.REQ_DATE = Z.REQ_DATE AND Z.SCD = &#39;1&#39;))&lt;br&gt;&lt;/div&gt;&lt;div style=&quot;&quot;&gt;&lt;span style=&quot;background-color: initial;&quot;&gt;&amp;nbsp; &amp;nbsp;FROM TMP_CNT X&lt;/span&gt;&lt;/div&gt;&lt;div style=&quot;&quot;&gt;ORDER BY REQ_DATE ASC&lt;/div&gt;&lt;div style=&quot;&quot;&gt;&lt;span style=&quot;background-color: initial;&quot;&gt;UNION ALL&lt;/span&gt;&lt;/div&gt;&lt;div style=&quot;&quot;&gt;&lt;span style=&quot;background-color: initial;&quot;&gt;SELECT &#39;합계&#39;&lt;/span&gt;&lt;/div&gt;&lt;div style=&quot;&quot;&gt;&lt;span style=&quot;background-color: initial;&quot;&gt;&amp;nbsp; &amp;nbsp; &amp;nbsp; &amp;nbsp; &amp;nbsp; &amp;nbsp; , (SELECT SUM(CNT) FROM TMP_CNT WHERE SCD = &#39;1&#39;)&lt;/span&gt;&lt;/div&gt;&lt;div style=&quot;&quot;&gt;&lt;span style=&quot;background-color: initial;&quot;&gt;&amp;nbsp; &amp;nbsp; &amp;nbsp; &amp;nbsp; &amp;nbsp; &amp;nbsp; , (SELECT SUM(CNT) FROM TMP_CNT WHERE SCD = &#39;2&#39;)&lt;/span&gt;&lt;/div&gt;&lt;div style=&quot;&quot;&gt;&lt;span style=&quot;background-color: initial;&quot;&gt;&amp;nbsp; &amp;nbsp; &amp;nbsp; &amp;nbsp; &amp;nbsp; &amp;nbsp; , (SELECT SUM(CNT) FROM TMP_CNT WHERE SCD = &#39;0&#39;)&lt;/span&gt;&lt;/div&gt;&lt;div style=&quot;&quot;&gt;&lt;span style=&quot;background-color: initial;&quot;&gt;&amp;nbsp; &amp;nbsp;FROM TMP_CNT X&lt;/span&gt;&lt;/div&gt;&lt;div style=&quot;&quot;&gt;WHERE DUAL&lt;/div&gt;&lt;div style=&quot;&quot;&gt;;&lt;/div&gt;" style="whiteSpace=wrap;html=1;strokeWidth=0;align=left;" vertex="1" parent="1">
          <mxGeometry x="-630" y="610" width="790" height="950" as="geometry" />
        </mxCell>
      </root>
    </mxGraphModel>
  </diagram>
</mxfile>
